<?xml version="1.0" encoding="UTF-8"?>
<svg version="1.1" xmlns="http://www.w3.org/2000/svg" width="200" height="200">
<path d="M0 0 C1.28068359 -0.020625 2.56136719 -0.04125 3.88085938 -0.0625 C5.12029297 -0.06765625 6.35972656 -0.0728125 7.63671875 -0.078125 C8.77197998 -0.0874707 9.90724121 -0.09681641 11.0769043 -0.10644531 C16.31253645 0.47033149 20.25141205 2.60579279 23.625 6.625 C24.36169922 7.47191406 24.36169922 7.47191406 25.11328125 8.3359375 C27.68148131 12.43501902 27.44065742 17.12117315 27.4453125 21.828125 C27.44660156 23.07078125 27.44789062 24.3134375 27.44921875 25.59375 C27.44535156 26.8828125 27.44148438 28.171875 27.4375 29.5 C27.44330078 31.45679688 27.44330078 31.45679688 27.44921875 33.453125 C27.44792969 34.690625 27.44664063 35.928125 27.4453125 37.203125 C27.44418457 38.33911133 27.44305664 39.47509766 27.44189453 40.64550781 C27.3125 43.25 27.3125 43.25 26.3125 44.25 C24.29285801 44.32244053 22.27082876 44.33377188 20.25 44.3125 C18.59291016 44.29896484 18.59291016 44.29896484 16.90234375 44.28515625 C16.04769531 44.27355469 15.19304687 44.26195312 14.3125 44.25 C13.27735942 41.14457825 13.22462744 39.09639772 13.28515625 35.84765625 C13.30352539 34.26500977 13.30352539 34.26500977 13.32226562 32.65039062 C13.35736121 30.42897024 13.39641011 28.20760873 13.43945312 25.98632812 C13.45041016 24.92994141 13.46136719 23.87355469 13.47265625 22.78515625 C13.48949463 21.819729 13.50633301 20.85430176 13.52368164 19.85961914 C13.30247888 17.1261668 12.79881742 15.53821935 11.3125 13.25 C8.19446601 11.50464401 8.19446601 11.50464401 -0.6875 12.25 C-1.0175 22.81 -1.3475 33.37 -1.6875 44.25 C-5.6475 44.25 -9.6075 44.25 -13.6875 44.25 C-15.63613925 42.30136075 -14.8166874 39.3519128 -14.82644653 36.75878906 C-14.8244223 35.84838867 -14.82239807 34.93798828 -14.8203125 34 C-14.82126923 33.07155273 -14.82222595 32.14310547 -14.82321167 31.18652344 C-14.82389355 29.21940035 -14.82203872 27.25227504 -14.81787109 25.28515625 C-14.81252295 22.26296974 -14.81781582 19.24093185 -14.82421875 16.21875 C-14.82355797 14.31249967 -14.82227681 12.40624943 -14.8203125 10.5 C-14.82233673 9.58959961 -14.82436096 8.67919922 -14.82644653 7.74121094 C-14.78695673 -2.7517216 -9.16583097 0.03635431 0 0 Z " fill="#FEFEFE" transform="translate(93.6875,78.75)"/>
<path d="M0 0 C-0.33 4.29 -0.66 8.58 -1 13 C-15.19 13 -29.38 13 -44 13 C-44.33 8.71 -44.66 4.42 -45 0 C-30.22162748 -2.35110472 -14.88085933 -0.72274772 0 0 Z " fill="#FEFEFE" transform="translate(176,95)"/>
<path d="M0 0 C14.19 0 28.38 0 43 0 C43 3.96 43 7.92 43 12 C42 13 42 13 38.03100586 13.11352539 C36.25894393 13.1133662 34.4868774 13.10766785 32.71484375 13.09765625 C31.78402481 13.0962413 30.85320587 13.09482635 29.8941803 13.09336853 C26.90858809 13.08775172 23.92306971 13.0751964 20.9375 13.0625 C18.91862087 13.05748716 16.89974057 13.05292388 14.88085938 13.04882812 C9.92054428 13.03777683 4.96028468 13.02050095 0 13 C0 8.71 0 4.42 0 0 Z " fill="#FEFEFE" transform="translate(25,95)"/>
<path d="M0 0 C3.96 0 7.92 0 12 0 C14.00127537 8.00510148 12.98142006 16.43907554 12.5625 24.625 C12.52334473 25.43146973 12.48418945 26.23793945 12.44384766 27.06884766 C12.11938311 32.88061689 12.11938311 32.88061689 11 34 C9.33570949 34.09823937 7.66718069 34.12973631 6 34.125 C4.63875 34.12886719 4.63875 34.12886719 3.25 34.1328125 C1 34 1 34 0 33 C-0.08843793 30.55169574 -0.11528752 28.13179401 -0.09765625 25.68359375 C-0.0962413 24.95253922 -0.09482635 24.22148468 -0.09336853 23.46827698 C-0.08775408 21.12464368 -0.07519922 18.78110461 -0.0625 16.4375 C-0.05748686 14.85221492 -0.05292363 13.26692834 -0.04882812 11.68164062 C-0.03777997 7.7877239 -0.02050572 3.89387795 0 0 Z " fill="#FDFEFE" transform="translate(94,134)"/>
<path d="M0 0 C1.51400391 0.01740234 1.51400391 0.01740234 3.05859375 0.03515625 C4.07050781 0.04417969 5.08242187 0.05320313 6.125 0.0625 C7.29869141 0.07990234 7.29869141 0.07990234 8.49609375 0.09765625 C9.98310043 3.07166961 9.50229307 6.04584551 9.375 9.29296875 C9.35138901 10.00041229 9.32777802 10.70785583 9.30345154 11.43673706 C9.22680541 13.6989138 9.14278563 15.96074898 9.05859375 18.22265625 C9.00537398 19.75519155 8.95263357 21.28774359 8.90039062 22.8203125 C8.77118908 26.57964386 8.63537338 30.33868533 8.49609375 34.09765625 C4.53609375 34.09765625 0.57609375 34.09765625 -3.50390625 34.09765625 C-3.52855913 29.41626371 -3.54674364 24.73490866 -3.55883789 20.0534668 C-3.56387782 18.45971011 -3.57070975 16.86595806 -3.5793457 15.2722168 C-3.59142624 12.98615372 -3.5971378 10.70015158 -3.6015625 8.4140625 C-3.60672379 7.69738907 -3.61188507 6.98071564 -3.61720276 6.24232483 C-3.61739888 4.52701953 -3.56582632 2.81184359 -3.50390625 1.09765625 C-2.50390625 0.09765625 -2.50390625 0.09765625 0 0 Z " fill="#FDFDFD" transform="translate(97.50390625,33.90234375)"/>
<path d="M0 0 C2.97 0 5.94 0 9 0 C10.75135032 3.50270065 11.13255248 6.30740701 10 10 C8.30422572 12.20565235 6.6923052 14.10416606 4.75 16.0625 C4.01475098 16.81454712 4.01475098 16.81454712 3.26464844 17.58178711 C1.796875 18.97265625 1.796875 18.97265625 -1 21 C-3.359375 20.80859375 -3.359375 20.80859375 -5 20 C-5 19.34 -5 18.68 -5 18 C-5.66 18 -6.32 18 -7 18 C-8.625 16.8125 -8.625 16.8125 -10 15 C-10.375 12.5 -10.375 12.5 -10 10 C-8.625 8.1875 -8.625 8.1875 -7 7 C-6.34 7 -5.68 7 -5 7 C-5 6.34 -5 5.68 -5 5 C-3.625 3.375 -3.625 3.375 -2 2 C-1.34 2 -0.68 2 0 2 C0 1.34 0 0.68 0 0 Z " fill="#FCFDFD" transform="translate(67,125)"/>
<path d="M0 0 C5.38384121 2.34616933 9.47937685 6.35984814 13 11 C13.82169305 14.10995217 13.57831816 15.76141829 13 19 C11.46028172 20.53971828 10.01514329 20.31779707 7.875 20.4375 C3.07454714 20.39927983 0.79546473 18.90492553 -2.5546875 15.5859375 C-3.03164063 15.06257813 -3.50859375 14.53921875 -4 14 C-4.66 13.29875 -5.32 12.5975 -6 11.875 C-7 10 -7 10 -6.75390625 8.0859375 C-5.87536923 5.65516669 -4.81409473 4.50681209 -2.9375 2.75 C-2.38964844 2.22921875 -1.84179688 1.7084375 -1.27734375 1.171875 C-0.64505859 0.59179688 -0.64505859 0.59179688 0 0 Z " fill="#FDFDFD" transform="translate(64,56)"/>
</svg>
