<svg width="124" height="59" viewBox="0 0 124 59" fill="none" xmlns="http://www.w3.org/2000/svg">
<path d="M5.15515 0H26L14.5 23L28.1449 0H49.1552L31 23L51.6552 0H73.1552L51.6552 23L75.9957 0H96L85 23L98 0H108L99 21L109.5 0H114H118.5V30.975V59H110L101 41L109 59H70L78.5 41L68.778 59L63 41L67.5 59H35.5L42 41L34 59H26L15 41L24 59H5.15515V26.1812V10.325V0Z" fill="black"/>
<path d="M28.128 17.44V40H21.856V27.552L17.6 40H12.352L8.064 27.456V40H1.792V17.44H9.376L15.04 32.096L20.576 17.44H28.128ZM30.6743 31.008C30.6743 29.152 31.0049 27.5307 31.6663 26.144C32.3489 24.7573 33.2663 23.6907 34.4183 22.944C35.5916 22.1973 36.8929 21.824 38.3223 21.824C39.5596 21.824 40.6263 22.0693 41.5223 22.56C42.4183 23.0507 43.1116 23.712 43.6023 24.544V22.048H49.8743V40H43.6023V37.504C43.1116 38.336 42.4076 38.9973 41.4903 39.488C40.5943 39.9787 39.5383 40.224 38.3223 40.224C36.8929 40.224 35.5916 39.8507 34.4183 39.104C33.2663 38.3573 32.3489 37.2907 31.6663 35.904C31.0049 34.496 30.6743 32.864 30.6743 31.008ZM43.6023 31.008C43.6023 29.856 43.2823 28.9493 42.6423 28.288C42.0236 27.6267 41.2556 27.296 40.3383 27.296C39.3996 27.296 38.6209 27.6267 38.0023 28.288C37.3836 28.928 37.0743 29.8347 37.0743 31.008C37.0743 32.16 37.3836 33.0773 38.0023 33.76C38.6209 34.4213 39.3996 34.752 40.3383 34.752C41.2556 34.752 42.0236 34.4213 42.6423 33.76C43.2823 33.0987 43.6023 32.1813 43.6023 31.008ZM65.1923 21.888C67.2616 21.888 68.9043 22.5813 70.1203 23.968C71.3363 25.3333 71.9443 27.1893 71.9443 29.536V40H65.6723V30.368C65.6723 29.344 65.4056 28.544 64.8723 27.968C64.3389 27.3707 63.6243 27.072 62.7283 27.072C61.7896 27.072 61.0536 27.3707 60.5203 27.968C59.9869 28.544 59.7203 29.344 59.7203 30.368V40H53.4483V22.048H59.7203V24.608C60.2749 23.7973 61.0216 23.1467 61.9603 22.656C62.8989 22.144 63.9763 21.888 65.1923 21.888ZM78.5538 20.384C77.4444 20.384 76.5484 20.0853 75.8658 19.488C75.2044 18.8693 74.8738 18.1013 74.8738 17.184C74.8738 16.2453 75.2044 15.4667 75.8658 14.848C76.5484 14.2293 77.4444 13.92 78.5538 13.92C79.6418 13.92 80.5164 14.2293 81.1778 14.848C81.8604 15.4667 82.2018 16.2453 82.2018 17.184C82.2018 18.1013 81.8604 18.8693 81.1778 19.488C80.5164 20.0853 79.6418 20.384 78.5538 20.384ZM81.6578 22.048V40H75.3858V22.048H81.6578ZM92.8775 40.224C91.2562 40.224 89.8055 39.9573 88.5255 39.424C87.2668 38.8693 86.2642 38.1227 85.5175 37.184C84.7922 36.224 84.3868 35.1467 84.3015 33.952H90.3815C90.4668 34.528 90.7335 34.976 91.1815 35.296C91.6295 35.616 92.1842 35.776 92.8455 35.776C93.3575 35.776 93.7628 35.6693 94.0615 35.456C94.3602 35.2427 94.5095 34.9653 94.5095 34.624C94.5095 34.176 94.2642 33.8453 93.7735 33.632C93.2828 33.4187 92.4722 33.184 91.3415 32.928C90.0615 32.672 88.9948 32.384 88.1415 32.064C87.2882 31.744 86.5415 31.2213 85.9015 30.496C85.2828 29.7707 84.9735 28.7893 84.9735 27.552C84.9735 26.4853 85.2615 25.5253 85.8375 24.672C86.4135 23.7973 87.2562 23.104 88.3655 22.592C89.4962 22.08 90.8508 21.824 92.4295 21.824C94.7762 21.824 96.6215 22.4 97.9655 23.552C99.3095 24.704 100.088 26.2187 100.302 28.096H94.6375C94.5308 27.52 94.2748 27.0827 93.8695 26.784C93.4855 26.464 92.9628 26.304 92.3015 26.304C91.7895 26.304 91.3948 26.4 91.1175 26.592C90.8615 26.784 90.7335 27.0507 90.7335 27.392C90.7335 27.8187 90.9788 28.1493 91.4695 28.384C91.9602 28.5973 92.7495 28.8213 93.8375 29.056C95.1388 29.3333 96.2162 29.6427 97.0695 29.984C97.9442 30.3253 98.7015 30.88 99.3415 31.648C100.003 32.3947 100.333 33.4187 100.333 34.72C100.333 35.7653 100.024 36.704 99.4055 37.536C98.8082 38.368 97.9442 39.0293 96.8135 39.52C95.7042 39.9893 94.3922 40.224 92.8775 40.224ZM115.225 21.888C117.273 21.888 118.894 22.5813 120.089 23.968C121.305 25.3333 121.913 27.1893 121.913 29.536V40H115.641V30.368C115.641 29.344 115.374 28.544 114.841 27.968C114.308 27.3707 113.593 27.072 112.697 27.072C111.758 27.072 111.022 27.3707 110.489 27.968C109.956 28.544 109.689 29.344 109.689 30.368V40H103.417V16.32H109.689V24.608C110.244 23.7973 110.99 23.1467 111.929 22.656C112.889 22.144 113.988 21.888 115.225 21.888Z" fill="white"/>
</svg>
